<mxfile host="app.diagrams.net" modified="2023-10-17T07:37:39.674Z" agent="Mozilla/5.0 (Windows NT 10.0; Win64; x64; rv:109.0) Gecko/20100101 Firefox/118.0" version="22.0.4" etag="dxpPnV8NeDnxtmwp2O28" type="github">
  <diagram name="Seite-1" id="CjcPE3_erDYF79xWivnL">
    <mxGraphModel>
      <root>
        <mxCell id="0" />
        <mxCell id="1" parent="0" />
      </root>
    </mxGraphModel>
  </diagram>
</mxfile>
